<?xml version="1.0" encoding="utf-8"?>
<!-- Generator: Adobe Illustrator 21.0.0, SVG Export Plug-In . SVG Version: 6.00 Build 0)  -->
<svg version="1.1" id="1" xmlns="http://www.w3.org/2000/svg" xmlns:xlink="http://www.w3.org/1999/xlink" x="0px" y="0px"
	 viewBox="0 0 175.9 132.4" style="enable-background:new 0 0 175.9 132.4;" xml:space="preserve">
<style type="text/css">
	.st0{fill:#98CB33;}
	.st1{fill:#FEFEFE;}
	.st2{fill:#8BB532;}
	.st3{fill:#000100;}
	.st4{fill:#669800;}
</style>
<g>
	<path d="M22.9,28.5c-0.7,5.1-1.3,10-1.9,14.8c-0.1,0.7-0.4,1.2-1.2,1.2c-0.1,0-0.2,0-0.4,0c-4.2-0.1-6.4,2.5-8.2,5.9
		C7.1,58.2,5.6,66,10.6,73.7c7,10.7,16.3,15.2,28,12.6c0.8-0.2,1.5-0.2,1.4-1.4c-0.9-13.4,3.2-25.5,10.1-36.7
		C57.6,36,67.5,26.5,80.8,20.9c1.9-0.8,3.8-1.5,5.8-2.1c0.9-0.3,1.4-0.6,1.7-1.7c1-4.7,3.1-9.1,5.4-13.3c1.5-2.8,4-4,7.2-3.8
		c1.1,0.1,1.6,0.3,1.3,1.7c-1,4.6-0.7,9.2,0.4,13.8c0.2,1,0.6,1.5,1.8,1.6c10.8,0.8,20.7,4,30,9.5c0.9,0.5,1.2,0.4,1.6-0.5
		c2.6-6,3.7-12.2,2.5-18.6c-0.3-1.8,0.2-2.2,1.8-2.1c2.7,0.1,4.7,1.3,6,3.6c5.2,9.2,7.3,19,5.4,29.6c-0.2,1.3-0.1,2.3,0.9,3.2
		c0.6,0.5,1.1,1.2,1.6,1.9c1.9,3.1,4.3,5,8.2,5.8c5.4,1.1,8.8,5.2,10.9,10.1c4.2,9.7,3.9,19.1-2.4,27.9c-1.8,2.6-4.4,4.4-7.5,5.4
		c-0.7,0.2-1.3,0.6-1.7,1.3c-6.5,12.2-17.1,19.6-29.6,24.5c-12.1,4.7-24.8,6-37.7,5.1c-2.9-0.2-5.7-0.3-8.6-0.8
		c-1-0.2-1.3,0.3-1.6,1.1c-0.4,1.4-0.8,2.9-1.2,4.3c-0.4,1.4-0.3,2.8-0.4,4.3c-1.7-0.2-2.9-1.1-4.1-2.1c-2.9-2.4-5-5.4-6-9.1
		c-0.2-0.9-0.4-1.7-1.6-1.8c-1.3-0.1-1.1,1.1-1.3,1.7c-1,2.3-1.6,4.7-1.5,7.3c0.1,1.6-0.5,1.5-1.6,0.9c-5.5-3-8.5-7.7-9.2-13.9
		c-0.1-1-0.4-1.5-1.1-2.2c-6-5.4-11.8-11-14.2-19.1c-0.4-1.2-1-0.7-1.7-0.6c-6.6,1.4-13.3,1.6-19.5-1.4c-10-4.8-17.4-12.1-20-23.3
		c-1.8-7.8,0.2-15.1,4-21.9c0.4-0.7,0.7-1.5,1.3-2.1c1.9-2.1,2.6-4.4,1.5-7.2c-0.2-0.6-0.3-1,0.4-1.4C12.8,33.8,17.8,31.2,22.9,28.5
		z"/>
	<path class="st0" d="M87.6,79.4c-0.1,1.3-0.3,2.6-0.6,3.9c-1.9,5.2-5,9.5-8.4,13.8c-4.2,5.5-8.9,10.7-12,16.9
		c-1.2,2.3-1.9,4.8-2.7,7.8c-1.6-3.9-1.8-7.4-1-11c1.1-5.6,4.2-10.1,7.7-14.4c2.3-2.8,4.8-5.3,7.1-7.9c-8.5,4.5-16.3,9.7-18.9,19.9
		c-2.4-2.1-2.9-4.9-1.5-7.9c1.4-3.2,3.9-5.5,6.5-7.7c2.2-1.9,4.4-3.6,6.6-5.5c-6.1,2.1-11.8,4.8-16.4,9.9c-0.2-1.9,0.3-3.2,1.1-4.5
		c1.4-2.1,3.3-3.6,5.2-5.1c3.4-2.6,7.1-4.9,10.2-8c1.9-1.8,3.5-3.8,4.6-6.8c-3.3,4-7.4,6.2-11.5,8.4c-2.6,1.4-5.2,2.7-7.6,4.4
		c-5.3,3.8-6.7,7.7-4.8,13.9c0.1,0.3,0.2,0.6,0.4,1.4c-3.6-4.6-5.4-9.4-6-14.6C44,75.2,47,64.8,52.2,54.8
		c6.9-13,16.7-23.1,30.3-29.1c1.1-0.5,2.2-0.9,3.3-1.3c0.4-0.2,0.9-0.2,1.4-0.3c-0.3,6.5,0.6,12.8,2.2,19.1c0.4,1.5,1,2,2.6,2
		c8.6,0.1,14.7-3.8,18.9-11.2c0.5-0.8,0.5-1.3-0.2-2.1c-2.5-2.8-4.4-6.1-5.8-9.7c12.9,1.3,24.2,6,34.2,13.7c4.9,3.7,9.1,8.1,12.8,13
		c0.4,0.5,0.8,1,0,1.5c-6.4,3.5-8.6,9.7-9.5,16.3c-1.2,8.8,1.1,16.7,7.9,22.9c1.5,1.4,3.3,2.2,5.2,2.9c0.5,0.2,1.3,0.2,0.6,1
		c-3.8,4.7-7.6,9.4-12.7,12.9c-7.6,5.3-16,8.6-25,10.4c-6.8-6.5-14.8-10.6-24.1-12.3c-4.3-0.8-8.7-0.5-13-0.6c-0.7,0-1.4,0.2-2-0.2
		c2.7-4.8,5.7-9.3,7.6-14.5c0.4-1.2,0.7-2.2,0.8-3.4C87.9,84.3,87.6,79.4,87.6,79.4z"/>
	<path class="st1" d="M145.1,69.4c0.1-4.3,1.3-9.6,5.2-13.8c4.9-5.4,11-5.7,16.2-0.6c5,4.9,6.6,11.3,6.2,18.1
		c-0.3,4.6-1.6,8.9-4.6,12.6c-4.9,6-12.1,6.2-17.3,0.5C147.2,82.4,145.2,76.9,145.1,69.4z"/>
	<path class="st1" d="M79.2,103.8c14.5-1.6,27.5,1.9,38.5,11.9c0.4,0.3,0.8,0.6,0.7,1.2c-14.8,2.7-29.5,2-44-1.7
		c-1.7-0.4-1.9-1-1.2-2.5C74.7,109.4,76.4,106.2,79.2,103.8z"/>
	<path class="st0" d="M99.5,6.9c-0.2,9.2,3,17.3,8.2,24.7c1,1.4,0.9,2.2,0,3.5c-3.5,4.8-8,7.7-14.1,8c-1.3,0.1-2-0.3-2.3-1.6
		c-3.3-12.4-2.4-24.4,4-35.7c0.8-1.4,1.6-2.6,3.2-3.2c1-0.4,1.2-0.1,1.2,0.8C99.4,4.5,99.5,5.7,99.5,6.9z"/>
	<path class="st0" d="M149.4,38.2c-3.8-3.4-7.3-6.8-11.5-9.3c-0.6-0.4-0.6-0.7-0.3-1.4c2.8-6,3.9-12.4,3.4-19c-0.1-1,0.3-1,1.1-0.7
		c1,0.4,1.7,1.2,2.3,2.1C149.2,18.7,151.2,27.9,149.4,38.2z"/>
	<path class="st2" d="M78.6,124c-0.5-0.7-1.1-1.5-0.8-2.3c0.1-0.3,0.8-0.3,1-0.1C79.6,122.4,78.7,123.2,78.6,124z"/>
	<path class="st3" d="M140.3,69c-0.1,7.7-1.8,14.5-6.5,20.3c-7.4,9.1-19.7,9-27.1-0.3c-4.1-5.1-5.9-11-6.2-17.5
		c-0.3-7.2,1.1-13.9,5.4-19.8c3.6-5,8.3-8.3,14.8-8.2c6.3,0.1,10.8,3.5,14.3,8.4C138.6,57.2,140.2,63.1,140.3,69z"/>
	<path d="M169.2,65.1c0.6,3.4,0,6.3-2,8.8c-2,2.5-4.6,2.4-6.7,0.1c-3.1-3.4-3.1-10.6,0-14c2.3-2.5,5.3-2.1,7.1,1
		c-1.8-0.1-2.8,0.8-3,2.5c-0.1,1.3,0.1,2.5,1.3,3.1C167.3,67.2,168.5,66.7,169.2,65.1z"/>
	<path class="st1" d="M103.9,68.1c0.3-5.3,2-11.7,6.9-16.8c6-6.2,14.2-5.9,19.7,0.8c6.6,8,7.5,17.2,4.7,27c-0.9,3.3-2.5,6.2-4.8,8.7
		c-6.2,7-15.3,6.6-21-0.8C105.7,82.1,103.9,76.5,103.9,68.1z"/>
	<path d="M132,67.9c0,1.5,0,3,0,4.5c0,1.4-0.5,2.7-1.2,3.9c-1.1,2.1-2.6,4-5.2,3.9c-2.5-0.1-4.1-1.9-5-4c-2.1-5-2.3-10,1.1-14.5
		c2.5-3.3,6.5-2.8,8.5,1c-2-0.1-3.3,0.7-3.5,2.9c-0.1,1.7,0.1,3.3,1.8,3.9C130.1,70.2,131.1,69.1,132,67.9z"/>
</g>
<path class="st4" d="M95,80.1c-0.2,2.2-0.5,4.3-1.7,6.2c-1.2,2-3,1.9-4.2,0C87,83.3,87,77,89,73.9c1.3-2,3.1-1.9,4.3,0.1
	C94.5,75.9,94.8,78,95,80.1z"/>
</svg>
