<?xml version="1.0" encoding="utf-8"?>
<!-- Generator: Adobe Illustrator 21.0.0, SVG Export Plug-In . SVG Version: 6.00 Build 0)  -->
<svg version="1.1" id="1" xmlns="http://www.w3.org/2000/svg" xmlns:xlink="http://www.w3.org/1999/xlink" x="0px" y="0px"
	 viewBox="0 0 175.8 123.8" style="enable-background:new 0 0 175.8 123.8;" xml:space="preserve">
<style type="text/css">
	.st0{fill:#98CB33;}
	.st1{fill:#FEFEFE;}
	.st2{fill:#97C934;}
	.st3{fill:#669800;}
	.st4{fill:#010101;}
</style>
<path d="M62.8,32.8c-0.9-3-1.5-6-1.7-9.2c-0.2-3.4,0.7-6.8,2.6-9.6c1-1.7,1.6-1.8,3-0.2c1.3,1.4,2.5,2.9,3.6,4.5
	c0.9,1.4,2,2.6,2.9,3.9c0.9,1.2,1.7,1.6,3.2,0.7c3.2-1.8,6.6-3.2,10.2-4.1c0.9-0.1,1.5-0.8,1.6-1.7c1.1-4.7,3.1-9.1,5.4-13.3
	C95,1.2,98-0.3,101,0.1c0.9,0.1,1.4,0.3,1.1,1.5c-0.9,4.6-0.8,9.4,0.4,13.9c0.2,0.9,0.5,1.5,1.6,1.5c10.7,0.8,21,4,30.2,9.5
	c1,0.6,1.2,0.3,1.6-0.6c2.6-6,3.7-12.2,2.5-18.6c-0.3-1.8,0.3-2.1,1.9-2.1c2.8,0.1,4.7,1.4,6,3.8c5.1,9.3,7.2,19.1,5.3,29.6
	c-0.2,1.1-0.1,2.1,0.8,2.9c0.6,0.5,1.1,1.2,1.6,1.9c2,3.2,4.3,5.5,8.4,5.9c2.8,0.3,5,2.4,7,4.5c8,8.6,8.6,24.4,1.3,33.6
	c-1.9,2.5-4.4,4.3-7.3,5.3c-0.7,0.2-1.4,0.6-1.7,1.3c-6.4,12-16.6,19.3-28.9,24.2c-12.4,4.9-25.4,6.2-38.6,5.4
	c-9.3-0.6-18.5-2-27.2-5.4c-9.5-3.7-17.6-9.2-22.6-18.4c-0.9-1.6-1.6-3.2-2.2-4.9c-0.3-1.1-0.6-1.6-2-1.2c-4.9,1.2-10,1.2-14.9,0.1
	C11.1,90.7-0.5,76,0,62c0.3-6.2,2.4-12.2,6-17.2c1.6-2.2,2.2-4.3,1.3-6.9c-0.3-0.8-0.2-1.2,0.6-1.6c4.9-2.5,9.7-5.1,14.8-7.7
	c-0.6,4.3-1.1,8.4-1.6,12.5c-0.5,3.4-0.5,3.5-4.1,4c-1.7,0.2-3.2,1.1-4,2.5c-3.3,5-5.7,10.2-5.6,16.4c0,1.6,0.3,3.2,0.7,4.8
	c3.4,12.4,18.4,21,30.7,17.5c0.9-0.2,1-0.6,0.9-1.4c-0.6-7.9,0.9-15.5,3.4-23c0.3-0.6,0.4-1.2,0.3-1.8c-0.5-2.8-0.7-5.6-0.2-8.4
	c0.2-0.8-0.4-1.3-0.8-1.8c-4.2-4.8-4.2-10.2,0.2-14.7c0.7-0.8,0.5-1.3,0.3-2.1c-1.3-5.1-2.1-10.3,0.3-15.4c2-4.2,2.7-4.4,5.4-0.7
	c3.6,4.9,7.1,9.8,11.7,13.8C61.2,31.4,61.8,32,62.8,32.8z"/>
<path class="st0" d="M62.5,110.3C53.8,105.9,48,99,45.8,89.5C44.1,82,44.9,74.7,47,67.3c6.4,5.6,13.9,6.1,21.7,5.7
	c-3.1-0.3-6.2-0.9-9.2-1.8c-5.1-1.5-9.6-3.9-11.7-9.2c-0.9-2.3-1.2-4.8-0.8-7.2c6.6,4.7,13.9,7,21.8,7.8c-5.1-2.5-10.2-4.8-15-7.8
	c-3.5-2.2-7-4.6-9.5-8.1c-1.5-2.1-2.1-4.4-0.7-6.8c0.9-1.6,1.2-1.6,2.3,0C50,45.6,55.7,50,62.4,52.6c0.4,0.2,0.8,0.4,1.4,0.2
	c-3.4-2.9-6.7-5.8-9.5-9.2c-3.8-4.5-7-9.2-8.2-15.1c-0.5-2.4-0.3-4.8,0.6-7.1c0.3,0,0.4,0,0.5,0.1c3.2,6.5,8.9,10.8,14.2,15.4
	C67.4,42.1,73.8,47,79,53.3c3.2,3.9,5.9,8,7.5,12.8c-0.2-3.4-1.2-6.5-2.7-9.5c-3.3-6.8-8.5-12.1-14-17.1c-3.6-3.3-3.7-3.2,0.2-6.2
	c4.6-3.7,9.7-6.5,15.2-8.5c0.4-0.1,0.8-0.3,1.2-0.4c0.2,0,0.4-0.1,0.6-0.1c-0.2,6.6,0.7,13.2,2.5,19.5c0.3,1.1,0.8,1.4,1.9,1.4
	c8.6,0.3,14.8-3.5,19.1-10.8c0.6-1,0.6-1.7-0.2-2.7c-2.4-2.9-4.3-6.1-5.6-9.5c18.6,1.9,35.6,11.5,46.9,26.5c0.5,0.6,1.2,1.3,0,2
	c-4,2.2-6.3,5.8-7.8,9.9c-3.5,9.9-2.2,19,4.4,27.3c1.6,2.1,3.9,3.6,6.4,4.5c1.6,0.5,1.3,1.1,0.6,2.2c-3.8,5.6-8.7,10.3-14.5,13.9
	c-6.9,4.2-14.5,7.2-22.4,8.6c-2.3-1.7-4.3-3.8-6.7-5.4c-7.5-4.8-16.2-7.4-25.1-7.6c-6.5-0.2-12.9,1.1-18.8,3.7
	C65.8,108.4,64.4,109.9,62.5,110.3z"/>
<path class="st1" d="M145,68.3c0.1-5,2.1-9.7,5.7-13.3c5.8-5.8,12.3-4.3,16.9,1.1c3.9,4.6,5.5,10.2,5.3,16.1
	c-0.2,5.5-1.7,10.6-5.7,14.6c-5.5,5.5-12.7,4.4-17.2-1.4C146.2,80.7,145.1,76.9,145,68.3z"/>
<path class="st1" d="M62.5,110.3c4-3.2,8.6-5,13.6-5.9c14.3-2.7,27.3,0.2,38.9,9.1c1.3,1,2.7,1.9,3.3,3.5c-15.7,2.8-31.2,2-46.4-2.6
	C68.5,113.5,65.4,112.1,62.5,110.3z"/>
<path class="st0" d="M99.4,6.9c-0.1,9.2,3.1,17.4,8.3,24.8c0.9,1.2,0.8,2,0,3.2c-3.6,5.1-8.3,8-14.5,8.2c-1.2,0-1.7-0.4-1.9-1.4
	C87.7,29,88.7,16.8,95.3,5.3c0.3-0.5,0.7-1.1,1.1-1.5c0.7-0.8,1.7-1.7,2.7-1.3c0.9,0.3,0.1,1.6,0.3,2.4C99.4,5.5,99.4,6.2,99.4,6.9z
	"/>
<path class="st0" d="M140.8,7.5c2,0.4,3,1.6,3.7,3c4.4,8.1,6.4,16.6,5.1,25.9c-0.1,0.5-0.1,1-0.1,1.5c-0.6,0.3-0.8-0.2-1.1-0.5
	c-3.2-3-6.6-5.9-10.3-8.3c-0.5-0.3-1-0.5-0.6-1.4C140.4,21.4,141.6,14.4,140.8,7.5z"/>
<path class="st2" d="M66.1,29.6c-1.3-3.3-1.3-6.9-0.2-10.2c1.4,2.5,2.6,4.6,4.3,6.4c0.5,0.5,0,0.7-0.3,1
	C68.7,27.7,67.5,28.6,66.1,29.6z"/>
<path d="M100.5,70c-0.2-7.4,1.7-14.1,6.5-19.7c8.3-9.7,20.7-8.8,27.9,1.7c7,10.3,7.2,24.7,0.4,35c-2.6,4-6,7.1-10.8,8.5
	c-6.3,1.8-13.3-0.6-17.9-6.5C102.2,83.4,100.3,77,100.5,70z"/>
<path class="st3" d="M94.9,79.9c-0.2,2.2-0.5,4.3-1.7,6.2c-1.2,2-3,1.9-4.2,0c-2.1-3.1-2.1-9.4,0-12.5c1.3-2,3.1-1.9,4.3,0.1
	C94.4,75.7,94.7,77.8,94.9,79.9z"/>
<path class="st4" d="M169.8,67.2c-0.9,3-0.8,6.5-4.4,8.2c-1.9,0.9-4.1,0.3-5.3-1.5c-2.9-4-2.9-10.5,0.5-14.2
	c1.9-2.1,4.9-1.9,6.6,0.3c0.5,0.6,1,1.3-0.5,1.4c-1,0.1-1.8,0.9-1.9,2c-0.2,1.3,0,2.5,1.2,3.2c0.7,0.4,1.3,0.3,1.9-0.2
	c0.4-0.3,0.4-1.3,1.3-1C170.1,65.8,169.5,66.6,169.8,67.2z"/>
<path class="st1" d="M136.9,69.6c-0.4,7.1-2,13.5-6.7,18.5c-5.3,5.8-12.9,6.8-19,0.9c-4.2-4-6.3-8.9-7.1-14.6
	c-1-7.6,0.2-14.7,4.8-20.9c3-4.1,6.9-7,12.2-6.5c5,0.4,8.5,3.4,11.2,7.4c2.5,3.7,3.9,8.1,4.2,12.5C136.6,67.9,137.2,68.9,136.9,69.6
	z"/>
<path class="st4" d="M130.8,63.1c-2.3-0.7-3.3,0.4-4,1.8c-0.5,1.2-0.3,2.5,0.5,3.5c1.2,1.6,2.4,1.5,3.9-0.1c0.2-0.3,0.2-0.8,0.8-0.6
	c0.5,0.2,0.3,0.6,0.3,0.9c0.1,3.3-0.1,6.6-2.3,9.2c-3.4,4.1-6.3,3.3-9-0.6c-2.9-4.2-2.6-11.4,0.4-15.5c1.2-1.6,2.9-2.7,4.9-2.4
	C128.2,59.7,129.5,60.9,130.8,63.1z"/>
<path class="st3" d="M95,79.9c-0.2,2.2-0.5,4.3-1.7,6.2c-1.2,2-3,1.9-4.2,0c-2.1-3.1-2.1-9.4,0-12.5c1.3-2,3.1-1.9,4.3,0.1
	C94.5,75.7,94.8,77.8,95,79.9z"/>
</svg>
